# xmcd
#
# Track frame offsets:
#	150
#	19650
#	39725
#	61550
#	83825
#	99563
#	119088
#	136200
#	157588
#	174713
#	194525
#	214988
#	233050
#	253225
#
# Disc length: 3654 seconds
#
# Revision: 1
# Processed by: cddbd v1.5.1PL0 Copyright (c) Steve Scherf et al.
# Submitted via: CDex 1.50Beta5
#
DISCID=bd0e440e
DTITLE=小林幸子 - 小林幸子ゴールデンベスト
DYEAR=2002
DGENRE=World
TTITLE0=雪泣夜
TTITLE1=泣かせ雨
TTITLE2=やんちゃ酒(セリフ入り)
TTITLE3=一夜かぎり
TTITLE4=とまり木
TTITLE5=もしかしてPartII
TTITLE6=おもいで酒
TTITLE7=越後情話
TTITLE8=恋蛍
TTITLE9=女の円舞曲
TTITLE10=ふたたびの
TTITLE11=約束
TTITLE12=別離
TTITLE13=雪椿
EXTD=
EXTT0=
EXTT1=
EXTT2=
EXTT3=
EXTT4=
EXTT5=
EXTT6=
EXTT7=
EXTT8=
EXTT9=
EXTT10=
EXTT11=
EXTT12=
EXTT13=
PLAYORDER=
